<svg width="24" height="24" viewBox="0 0 24 24" fill="none" xmlns="http://www.w3.org/2000/svg">
<path fill-rule="evenodd" clip-rule="evenodd" d="M14.1664 2C14.5517 2 14.8641 2.31236 14.8641 2.69768V9.13747H21.3039C21.6892 9.13747 22.0016 9.44983 22.0016 9.83515C22.0016 10.2205 21.6892 10.5328 21.3039 10.5328H14.1664C13.7811 10.5328 13.4688 10.2205 13.4688 9.83515V2.69768C13.4688 2.31236 13.7811 2 14.1664 2Z" fill="#6F6F8D"/>
<path fill-rule="evenodd" clip-rule="evenodd" d="M21.7973 2.20435C22.0697 2.47681 22.0697 2.91856 21.7973 3.19102L14.6598 10.3285C14.3873 10.6009 13.9456 10.6009 13.6731 10.3285C13.4006 10.056 13.4006 9.61427 13.6731 9.34181L20.8106 2.20435C21.0831 1.93188 21.5248 1.93189 21.7973 2.20435Z" fill="#6F6F8D"/>
<path fill-rule="evenodd" clip-rule="evenodd" d="M2 14.1648C2 13.7795 2.31236 13.4672 2.69768 13.4672H9.83517C10.2205 13.4672 10.5329 13.7795 10.5329 14.1648V21.3023C10.5329 21.6877 10.2205 22 9.83517 22C9.44986 22 9.13749 21.6877 9.13749 21.3023V14.8625H2.69768C2.31236 14.8625 2 14.5502 2 14.1648Z" fill="#6F6F8D"/>
<path fill-rule="evenodd" clip-rule="evenodd" d="M10.3285 13.6715C10.601 13.944 10.601 14.3857 10.3285 14.6582L3.19102 21.7957C2.91855 22.0681 2.47681 22.0681 2.20435 21.7957C1.93188 21.5232 1.93188 21.0815 2.20435 20.809L9.34184 13.6715C9.6143 13.399 10.056 13.399 10.3285 13.6715Z" fill="#6F6F8D"/>
</svg>
