<svg width="24" height="24" viewBox="0 0 24 24" fill="none" xmlns="http://www.w3.org/2000/svg">
<path fill-rule="evenodd" clip-rule="evenodd" d="M2.69768 13.4672C3.08299 13.4672 3.39535 13.7795 3.39535 14.1648V20.6046H9.83511C10.2204 20.6046 10.5328 20.917 10.5328 21.3023C10.5328 21.6876 10.2204 22 9.83511 22H2.69768C2.31236 22 2 21.6876 2 21.3023V14.1648C2 13.7795 2.31236 13.4672 2.69768 13.4672Z" fill="#6F6F8D"/>
<path fill-rule="evenodd" clip-rule="evenodd" d="M10.3266 13.6709C10.5994 13.9431 10.5999 14.3848 10.3277 14.6576L3.20722 21.795C2.93508 22.0678 2.49334 22.0683 2.22056 21.7962C1.94777 21.5241 1.94725 21.0823 2.21939 20.8095L9.33991 13.6721C9.61205 13.3993 10.0538 13.3988 10.3266 13.6709Z" fill="#6F6F8D"/>
<path fill-rule="evenodd" clip-rule="evenodd" d="M13.4844 2.6978C13.4844 2.31248 13.7967 2.00012 14.1821 2.00012H21.3026C21.6879 2.00012 22.0002 2.31248 22.0002 2.6978V9.83521C22.0002 10.2205 21.6879 10.5329 21.3026 10.5329C20.9172 10.5329 20.6049 10.2205 20.6049 9.83521V3.39548H14.1821C13.7967 3.39548 13.4844 3.08312 13.4844 2.6978Z" fill="#6F6F8D"/>
<path fill-rule="evenodd" clip-rule="evenodd" d="M21.7953 2.20388C22.0681 2.47602 22.0686 2.91776 21.7965 3.19055L14.676 10.328C14.4038 10.6007 13.9621 10.6013 13.6893 10.3291C13.4165 10.057 13.416 9.61524 13.6881 9.34246L20.8086 2.20505C21.0808 1.93227 21.5225 1.93175 21.7953 2.20388Z" fill="#6F6F8D"/>
</svg>
