<svg width="24" height="24" viewBox="0 0 24 24" fill="none" xmlns="http://www.w3.org/2000/svg">
<path d="M10.5967 4.01033C10.6792 4.02065 10.761 4.03815 10.8408 4.06307L10.959 4.10604L11.0537 4.14901C11.2383 4.24196 11.4 4.3749 11.5273 4.53768L11.5879 4.62166L11.6426 4.70955C11.7617 4.91943 11.8248 5.1575 11.8252 5.39998V18.5963L11.8213 18.6998C11.8038 18.941 11.7237 19.1744 11.5889 19.3765C11.4349 19.6072 11.2161 19.7869 10.96 19.8931C10.8044 19.9576 10.6392 19.9937 10.4727 19.9996C10.3647 20.0034 10.2554 19.9945 10.1484 19.9732C9.87635 19.9189 9.62668 19.7849 9.43066 19.5885L6.30176 16.4586L6.2998 16.4576C6.24899 16.4065 6.18865 16.366 6.12207 16.3385C6.05548 16.3109 5.98418 16.2963 5.91211 16.2965H3.6748C3.23064 16.2964 2.80431 16.1203 2.49023 15.8062C2.17619 15.4921 2 15.0658 2 14.6217V9.37655C2 8.93238 2.17621 8.50608 2.49023 8.19198C2.80431 7.8779 3.23064 7.70179 3.6748 7.70174H5.91211C5.98418 7.70194 6.05549 7.68733 6.12207 7.65975C6.18863 7.63217 6.24899 7.59169 6.2998 7.54061L9.43262 4.40877C9.62856 4.21336 9.87799 4.07991 10.1494 4.02596L10.3105 4.00447C10.3644 4.00014 10.4188 3.99867 10.4727 4.00057L10.5967 4.01033ZM20.7197 8.6949C21.0126 8.40201 21.4874 8.40201 21.7803 8.6949C22.0731 8.98781 22.0731 9.46259 21.7803 9.75545L19.5352 11.9996L21.7803 14.2447C22.0732 14.5376 22.0732 15.0124 21.7803 15.3053C21.4874 15.5981 21.0126 15.5981 20.7197 15.3053L18.4746 13.0601L16.2305 15.3053C15.9376 15.5981 15.4628 15.5981 15.1699 15.3053C14.877 15.0124 14.877 14.5376 15.1699 14.2447L17.4141 11.9996L15.1699 9.75545C14.877 9.46256 14.877 8.9878 15.1699 8.6949C15.4628 8.40201 15.9376 8.40201 16.2305 8.6949L18.4746 10.939L20.7197 8.6949ZM3.5 14.6217C3.5 14.668 3.51804 14.7129 3.55078 14.7457C3.58355 14.7785 3.62846 14.7964 3.6748 14.7965H5.91016C6.17988 14.796 6.44709 14.8495 6.69629 14.9527C6.94543 15.0559 7.17195 15.207 7.3623 15.398L10.3252 18.3609V5.63729L7.3623 8.60018C7.17196 8.79118 6.94543 8.94227 6.69629 9.04549C6.44709 9.14872 6.17988 9.20122 5.91016 9.20076L3.6748 9.20174C3.62846 9.20179 3.58355 9.21975 3.55078 9.25252C3.51806 9.28533 3.5 9.33021 3.5 9.37655V14.6217Z" fill="#6F6F8D"/>
</svg>
