<svg width="24" height="24" viewBox="0 0 24 24" fill="none" xmlns="http://www.w3.org/2000/svg">
<path d="M10.5967 4.01033C10.6792 4.02065 10.761 4.03815 10.8408 4.06307L10.959 4.10604L11.0537 4.14901C11.2383 4.24195 11.4 4.3749 11.5273 4.53768L11.5879 4.62166L11.6426 4.70955C11.7617 4.91943 11.8248 5.15749 11.8252 5.39998V18.5963L11.8213 18.6998C11.8038 18.941 11.7237 19.1744 11.5889 19.3765C11.4349 19.6072 11.2161 19.7869 10.96 19.8931C10.8044 19.9576 10.6392 19.9937 10.4727 19.9996C10.3647 20.0034 10.2554 19.9945 10.1484 19.9732C9.87634 19.9189 9.62668 19.7849 9.43066 19.5885L6.30176 16.4586L6.2998 16.4576C6.24899 16.4065 6.18865 16.366 6.12207 16.3385C6.05548 16.3109 5.98418 16.2963 5.91211 16.2965H3.6748C3.23064 16.2964 2.80431 16.1203 2.49023 15.8062C2.21554 15.5315 2.04595 15.1709 2.00781 14.7877L2 14.6217V9.37654C2 8.93238 2.1762 8.50608 2.49023 8.19197C2.80431 7.8779 3.23064 7.70179 3.6748 7.70174H5.91211C5.98418 7.70194 6.05548 7.68733 6.12207 7.65975C6.18864 7.63217 6.24899 7.59169 6.2998 7.54061L9.43164 4.40975C9.62763 4.21416 9.87784 4.07994 10.1494 4.02596L10.3105 4.00447C10.3644 4.00014 10.4188 3.99867 10.4727 4.00057L10.5967 4.01033ZM20.5 11.9996C20.4999 10.9165 20.2865 9.84404 19.8721 8.84334C19.4575 7.84251 18.85 6.93261 18.084 6.16658C17.7911 5.8737 17.7911 5.39893 18.084 5.10604C18.3769 4.81314 18.8516 4.81315 19.1445 5.10604C20.0498 6.01135 20.7679 7.08631 21.2578 8.26912C21.7477 9.45186 21.9999 10.7194 22 11.9996C22 13.2799 21.7478 14.5481 21.2578 15.731C20.7679 16.9139 20.0498 17.9888 19.1445 18.8941C18.8516 19.187 18.3769 19.187 18.084 18.8941C17.7911 18.6012 17.7911 18.1265 18.084 17.8336C18.85 17.0675 19.4575 16.1577 19.8721 15.1568C20.2866 14.156 20.5 13.0829 20.5 11.9996ZM15.5 11.9996C15.4999 11.0802 15.202 10.1853 14.6504 9.44979C14.4019 9.11845 14.4685 8.64853 14.7998 8.39998C15.1312 8.15145 15.6011 8.219 15.8496 8.55037C16.596 9.54555 16.9999 10.7556 17 11.9996C17 13.2437 16.5961 14.4545 15.8496 15.4498C15.6011 15.7811 15.1312 15.8487 14.7998 15.6002C14.4685 15.3516 14.4019 14.8817 14.6504 14.5504C15.2021 13.8147 15.5 12.9192 15.5 11.9996ZM3.5 14.6217L3.51367 14.689C3.52236 14.7099 3.53454 14.7294 3.55078 14.7457C3.58355 14.7785 3.62846 14.7964 3.6748 14.7965H5.91016C6.17988 14.796 6.44709 14.8495 6.69629 14.9527C6.94543 15.0559 7.17195 15.207 7.3623 15.398L10.3252 18.3609V5.63729L7.3623 8.60018C7.17196 8.79118 6.94543 8.94226 6.69629 9.04549C6.44709 9.14872 6.17988 9.20122 5.91016 9.20076L3.6748 9.20174C3.62846 9.20179 3.58355 9.21975 3.55078 9.25252C3.51805 9.28533 3.5 9.3302 3.5 9.37654V14.6217Z" fill="#6F6F8D"/>
</svg>
